<!DOCTYPE svg PUBLIC "-//W3C//DTD SVG 1.1//EN" "http://www.w3.org/Graphics/SVG/1.1/DTD/svg11.dtd">
<!-- Uploaded to: SVG Repo, www.svgrepo.com, Transformed by: SVG Repo Mixer Tools -->
<svg fill="#ffffff" height="800px" width="800px" version="1.1" id="Layer_1" xmlns="http://www.w3.org/2000/svg" xmlns:xlink="http://www.w3.org/1999/xlink" viewBox="0 0 512 512" xml:space="preserve">

<g id="SVGRepo_bgCarrier" stroke-width="0"/>

<g id="SVGRepo_tracerCarrier" stroke-linecap="round" stroke-linejoin="round"/>

<g id="SVGRepo_iconCarrier"> <g> <g> <path d="M483.461,276.826c-3.121-3.741-8.685-4.235-12.43-1.123l-46.184,38.492l-38.485-46.356 c-1.677-2.009-4.159-3.338-6.78-3.338h-27.775c-0.901-11.034-2.259-24.275-4.041-35.309h22.988c4.875,0,7.724-3.612,7.724-8.491 V170.41l34.378-50.739c2.702-4.06,1.883-9.534-2.172-12.241c-4.064-2.707-9.4-1.612-12.103,2.448l-35.792,52.963 c-0.966,1.448-1.965,3.155-1.965,4.896v43.8h-16.24c-2.549-11.034-5.627-24.038-9.176-35.003c0.023-1.375-0.236-2.687-0.893-4.002 c-0.284-0.571-0.629-1.052-1.013-1.53c-10.206-29.37-23.889-52.496-39.832-66.752c10.473-16.659,47.074-66.04,123.545-86.897 c4.703-1.284,7.474-6.131,6.194-10.829c-1.289-4.707-6.142-7.523-10.84-6.196c-81.485,22.221-120.89,73.939-133.421,93.796 c-7.396-3.808-15.142-5.832-23.146-5.832c-8.003,0-15.749,2.026-23.145,5.832C220.324,74.27,180.919,22.554,99.433,0.331 c-4.711-1.302-9.555,1.491-10.84,6.198c-1.28,4.698,1.491,9.551,6.194,10.836c76.139,20.762,112.97,70.238,123.528,86.923 c-15.938,14.26-29.617,37.406-39.819,66.769c-0.382,0.478-0.725,1-1.01,1.569c-0.653,1.31-0.912,2.532-0.89,3.903 c-3.552,10.967-6.629,23.975-9.179,35.009H148.97v-43.8c0-1.741,0.034-3.448-0.931-4.896l-35.033-52.963 c-2.707-4.06-8.047-5.155-12.103-2.448c-4.056,2.707-5.633,8.181-2.931,12.241l33.344,50.739v50.291 c0,4.879,5.056,8.491,9.931,8.491h22.988c-1.781,11.034-3.14,24.275-4.04,35.309h-27.776c-2.621,0-5.103,1.332-6.78,3.34 l-38.485,46.272L40.97,275.665c-3.754-3.112-9.31-2.59-12.431,1.151c-3.12,3.75-2.616,9.329,1.129,12.45l52.963,44.143 c1.651,1.371,3.655,2.045,5.646,2.045c2.53,0,5.039-1.246,6.784-3.34l41.49-49.957h22.672c-0.211,6.62-0.323,11.868-0.323,17.823 c0,10.193,0.321,20.277,0.931,30.048l-24.034,15.695c-2.457,1.638-4.482,4.439-4.482,7.388v66.204l-66.536,50.317 c-3.901,2.922-4.414,8.457-1.487,12.353c1.733,2.319,4.521,3.534,7.207,3.534c1.841,0,3.767-0.578,5.357-1.767l70.101-52.963 c2.224-1.664,3.013-4.284,3.013-7.06v-65.894l12.004-7.636C171.028,444.07,209.204,512,255.724,512 c46.521,0,84.007-67.93,94.061-161.802l11.038,7.636v65.894c0,2.776,1.858,5.397,4.082,7.06l70.894,52.963 c1.59,1.189,3.586,1.767,5.427,1.767c2.685,0,5.405-1.215,7.138-3.534c2.926-3.896,1.62-9.431-2.28-12.353l-67.605-50.317V353.11 c0-2.948-0.922-5.707-3.379-7.344l-23.204-15.654c0.608-9.771,1.067-19.939,1.067-30.132c0-5.955,0.026-11.202-0.184-17.823 h22.671l41.49,49.959c1.746,2.095,4.254,3.256,6.784,3.256c1.991,0,3.995-0.632,5.646-2.002l52.963-44.115 C486.077,286.134,486.581,280.576,483.461,276.826z M256,105.947c21.423,0,43.684,24.348,59.174,66.062 c-11.756,4.879-35.63,13.383-59.174,13.383c-23.462,0-47.388-8.515-59.17-13.394C212.321,130.291,234.581,105.947,256,105.947z M246.069,493.078c-28.688-8.732-56.138-62.222-65.918-132.199c0.599-0.321,0.903-0.694,1.433-1.166 c0.345-0.302,33.589-27.908,64.484-32.44V493.078z M263.724,492.941V327.273c33.102,4.532,64.968,32.139,65.312,32.44 c0.57,0.506,0.922,0.892,1.571,1.224C320.432,435.031,292.412,484.32,263.724,492.941z M333.721,340.367 c-14.019-10.67-45.403-31.393-77.721-31.393c-32.262,0-63.594,20.652-77.65,31.342c-1.171-13.008-1.795-26.447-1.795-40.169 c0-43.022,5.644-80.796,14.688-111.329c13.458,5.502,38.882,14.23,64.757,14.23c25.876,0,51.3-8.728,64.757-14.23 c9.044,30.533,14.688,68.308,14.688,111.329C335.445,314.135,334.836,327.555,333.721,340.367z"/> </g> </g> </g>

</svg>
